<?xml version="1.0" encoding="utf-8"?>
<!-- Generator: Adobe Illustrator 25.0.1, SVG Export Plug-In . SVG Version: 6.00 Build 0)  -->
<svg version="1.1" id="Calque_1" xmlns="http://www.w3.org/2000/svg" xmlns:xlink="http://www.w3.org/1999/xlink" x="0px" y="0px"
	 viewBox="0 0 200 200" style="enable-background:new 0 0 200 200;" xml:space="preserve">
<style type="text/css">
	.st0{fill:#EA533F;}
	.st1{fill:#FFFFFF;}
</style>
<g>
	<rect y="0" class="st0" width="200" height="200"/>
</g>
<g>
	<circle class="st0" cx="99.68" cy="99.68" r="91.4"/>
	<path class="st1" d="M99.68,13.28c47.64,0,86.4,38.76,86.4,86.4s-38.76,86.4-86.4,86.4s-86.4-38.76-86.4-86.4
		S52.04,13.28,99.68,13.28 M99.68,3.28c-53.24,0-96.4,43.16-96.4,96.4s43.16,96.4,96.4,96.4s96.4-43.16,96.4-96.4
		S152.92,3.28,99.68,3.28L99.68,3.28z"/>
</g>
<g>
	<path class="st1" d="M154.69,97.76v36.58h-22.42v-32.92c0-9.2-3.78-13.1-9.68-13.1c-6.49,0-11.21,4.37-11.21,14.28v31.74H88.97
		v-32.92c0-9.2-3.66-13.1-9.68-13.1c-6.61,0-11.33,4.37-11.33,14.28v31.74H45.54V70.38H66.9v6.73c4.84-5.19,11.56-7.79,19.12-7.79
		c8.73,0,16.17,3.19,20.65,10.03c5.07-6.37,12.98-10.03,22.18-10.03C143.72,69.32,154.69,77.93,154.69,97.76z"/>
</g>
</svg>
